<?xml version="1.0" standalone="no"?><!DOCTYPE svg PUBLIC "-//W3C//DTD SVG 1.1//EN" "http://www.w3.org/Graphics/SVG/1.1/DTD/svg11.dtd"><svg t="1630977176724" class="icon" viewBox="0 0 1024 1024" version="1.1" xmlns="http://www.w3.org/2000/svg" p-id="10998" xmlns:xlink="http://www.w3.org/1999/xlink" width="200" height="200"><defs><style type="text/css"></style></defs><path d="M802.6 385.1L699 282.5l13.1-158c1.5-7.9-12.6-9-21.9-1.7L546.8 264.9c-28.8-15-64.4-24.5-102.3-28.6-35.3-45.6-46.5-93.6-50.1-117.3-1.1-7.8-10.6-11.6-17.7-7.2-45.1 28.3-75 101.4-87.8 139-16.6 5.3-32.2 11.8-46.4 19.7-67.6 37.5-186.4 201.9-148 271.2 29.6 53.8 216.5 94.5 320.2 49.5C515.8 547.3 593.9 475.6 613 403.7l175-2.5c11.5-1.5 20.4-11.4 14.6-16.1z" fill="#FF5A5A" p-id="10999"></path><path d="M151.4 488.7c-0.7 0-1.3-0.1-2-0.3-2.9-1-4.3-4-3.1-6.7 38.9-94.1 85.8-138.2 87.8-140 2.2-2 5.6-2 7.8 0s2.2 5.3 0 7.3c-0.5 0.4-47.3 44.5-85.2 136.4-1 2-3 3.3-5.3 3.3z" fill="#FFFFFF" p-id="11000"></path><path d="M249.9 328.8a5.5 5.1 0 1 0 11 0 5.5 5.1 0 1 0-11 0Z" fill="#FFFFFF" p-id="11001"></path><path d="M221 602.5c64.7 12.4 140.2 11.9 193.7-11.2 78.2-34 142.7-84.5 176.7-138.9C482.3 517.8 349.2 581.9 221 602.5zM788 401.5c11.5-1.7 20.4-11.6 14.6-16.4l-45-44.6C732.8 359 703 380.4 669 403.1l119-1.6z" fill="#FF4848" p-id="11002"></path><path d="M970.8 699.1l-115.1-114 14.6-175.5c1.7-8.8-14-10.1-24.3-1.9L686.7 565.6c-32.1-16.7-71.5-27.2-113.6-31.7-39.2-50.7-51.6-104-55.6-130.3-1.3-8.7-11.7-12.9-19.7-8-50.1 31.4-83.4 112.7-97.5 154.5-18.4 5.9-35.8 13.1-51.5 21.9-75.2 41.6-207.2 224.3-164.6 301.3 32.9 59.8 240.6 105 355.8 55C652.2 879.4 739 799.8 760.2 720l194.4-2.8c12.8-1.8 22.7-12.8 16.2-18.1z" fill="#FF3333" p-id="11003"></path><path d="M235.9 826c-0.7 0-1.4-0.1-2.1-0.3-3.1-1.1-4.5-4.2-3.3-7.1 41.2-99.5 90.8-146.2 92.9-148.1 2.3-2.1 5.9-2.1 8.3 0 2.3 2.1 2.3 5.6 0 7.7-0.5 0.4-50 47.1-90.1 144.3-1.1 2.2-3.4 3.5-5.7 3.5z" fill="#FFFFFF" p-id="11004"></path><path d="M340.1 657a5.8 5.4 0 1 0 11.6 0 5.8 5.4 0 1 0-11.6 0Z" fill="#FFFFFF" p-id="11005"></path><path d="M235.9 826c-0.7 0-1.4-0.1-2.1-0.3-3.1-1.1-4.5-4.2-3.3-7.1 41.2-99.5 90.8-146.2 92.9-148.1 2.3-2.1 5.9-2.1 8.3 0 2.3 2.1 2.3 5.6 0 7.7-0.5 0.4-50 47.1-90.1 144.3-1.1 2.2-3.4 3.5-5.7 3.5z" fill="#FFFFFF" p-id="11006"></path><path d="M340.1 657a5.8 5.4 0 1 0 11.6 0 5.8 5.4 0 1 0-11.6 0Z" fill="#FFFFFF" p-id="11007"></path><path d="M324.7 940.7c71.9 13.8 155.8 13.2 215.2-12.5 86.9-37.8 158.6-93.8 196.3-154.3-121.1 72.6-269 143.8-411.5 166.8zM954.6 717.3c12.8-1.9 22.6-12.9 16.2-18.2l-50-49.5c-27.4 20.5-60.6 44.3-98.4 69.5l132.2-1.8z" fill="#E52525" p-id="11008"></path></svg>